<svg width="32" height="32" viewBox="0 0 32 32" fill="none" xmlns="http://www.w3.org/2000/svg">
<path d="M13.3334 5.99996V24C13.3334 25.44 12.7467 26.76 11.8134 27.72L11.7601 27.7733C11.6401 27.8933 11.5068 28.0133 11.3868 28.1066C10.9868 28.4533 10.5334 28.72 10.0667 28.9066C9.92006 28.9733 9.77342 29.0266 9.62675 29.08C9.10675 29.2533 8.54675 29.3333 8.00008 29.3333C7.64008 29.3333 7.2801 29.2933 6.93343 29.2266C6.7601 29.1866 6.58674 29.1466 6.41341 29.0933C6.20008 29.0266 6.00009 28.96 5.80009 28.8666C5.80009 28.8533 5.80008 28.8533 5.78674 28.8666C5.41341 28.68 5.05343 28.4666 4.72009 28.2133L4.70675 28.2C4.53341 28.0666 4.37343 27.9333 4.22677 27.7733C4.0801 27.6133 3.93341 27.4533 3.78674 27.28C3.53341 26.9466 3.32009 26.5866 3.13342 26.2133C3.14676 26.2 3.14676 26.2 3.13342 26.2C3.13342 26.2 3.13341 26.1866 3.12008 26.1733C3.04008 25.9866 2.9734 25.7866 2.90674 25.5866C2.8534 25.4133 2.8134 25.24 2.7734 25.0666C2.70673 24.72 2.66675 24.36 2.66675 24V5.99996C2.66675 3.99996 4.00008 2.66663 6.00008 2.66663H10.0001C12.0001 2.66663 13.3334 3.99996 13.3334 5.99996Z" stroke="#5E3BEE" stroke-width="1.5" stroke-linecap="round" stroke-linejoin="round"/>
<path d="M29.3333 22V26C29.3333 28 28 29.3333 26 29.3333H8C8.54667 29.3333 9.10667 29.2533 9.62667 29.08C9.77334 29.0266 9.91998 28.9733 10.0667 28.9066C10.5333 28.72 10.9867 28.4533 11.3867 28.1066C11.5067 28.0133 11.64 27.8933 11.76 27.7733L11.8133 27.72L20.88 18.6666H26C28 18.6666 29.3333 20 29.3333 22Z" stroke="#5E3BEE" stroke-width="1.5" stroke-linecap="round" stroke-linejoin="round"/>
<path d="M6.41341 29.0933C5.61341 28.8533 4.85343 28.4133 4.22677 27.7733C3.58677 27.1467 3.14674 26.3867 2.90674 25.5867C3.42674 27.2533 4.74674 28.5733 6.41341 29.0933Z" stroke="#5E3BEE" stroke-width="1.5" stroke-linecap="round" stroke-linejoin="round"/>
<path d="M24.4934 15.0533L20.88 18.6666L11.8134 27.72C12.7467 26.76 13.3334 25.44 13.3334 24V11.12L16.9467 7.50666C18.36 6.09332 20.2534 6.09332 21.6667 7.50666L24.4934 10.3333C25.9067 11.7466 25.9067 13.64 24.4934 15.0533Z" stroke="#5E3BEE" stroke-width="1.5" stroke-linecap="round" stroke-linejoin="round"/>
<path d="M7.99996 25.3333C8.73634 25.3333 9.33329 24.7363 9.33329 24C9.33329 23.2636 8.73634 22.6666 7.99996 22.6666C7.26358 22.6666 6.66663 23.2636 6.66663 24C6.66663 24.7363 7.26358 25.3333 7.99996 25.3333Z" stroke="#5E3BEE" stroke-width="1.5" stroke-linecap="round" stroke-linejoin="round"/>
</svg>
